<svg width="30" height="24" viewBox="0 0 30 24" fill="none" xmlns="http://www.w3.org/2000/svg">
<path d="M29.3724 6.84922L24.757 0.387692C24.5724 0.147692 24.2955 0 24.0001 0H5.5386C5.24322 0 4.9663 0.147692 4.78168 0.387692L0.166306 6.84922C0.110921 7.01537 0.0555369 7.18153 0.00015237 7.34768C-0.0183091 9.3969 1.64323 11.0769 3.69245 11.0769C4.80014 11.0769 5.7786 10.5969 6.46168 9.82152C7.14475 10.5969 8.12321 11.0769 9.2309 11.0769C10.3386 11.0769 11.3171 10.5969 12.0001 9.82152C12.6832 10.5969 13.6617 11.0769 14.7694 11.0769C15.877 11.0769 16.8555 10.5969 17.5386 9.82152C18.2217 10.5969 19.2001 11.0769 20.3078 11.0769C21.4155 11.0769 22.394 10.5969 23.077 9.82152C23.7601 10.5969 24.7386 11.0769 25.8463 11.0769C27.8955 11.0769 29.557 9.3969 29.5386 7.34768C29.4832 7.18153 29.4278 7.01537 29.3724 6.84922Z" fill="#A0A0A0"/>
<path d="M25.8459 12.923C24.8656 12.923 23.9111 12.6608 23.0767 12.1771C21.4078 13.1427 19.2071 13.1427 17.5382 12.1771C15.8693 13.1427 13.6668 13.1427 11.9998 12.1771C10.3327 13.1427 8.1284 13.1427 6.46132 12.1771C5.07486 12.982 3.35794 13.0854 1.84595 12.563V22.1537C1.84595 23.1728 2.67302 23.9999 3.6921 23.9999H18.4613V14.7691H23.9997V23.9999H25.8459C26.865 23.9999 27.692 23.1728 27.692 22.1537V12.5851C27.105 12.7937 26.4865 12.923 25.8459 12.923ZM12.9228 20.3076H5.53825V14.7691H12.9228V20.3076Z" fill="#A0A0A0"/>
</svg>
