<svg width="28" height="24" viewBox="0 0 28 24" fill="none" xmlns="http://www.w3.org/2000/svg">
<path d="M8.85326 16.0001H23.3067C23.6646 16.0001 23.9785 15.7634 24.0754 15.4197L27.2756 4.21955C27.3443 3.97809 27.2973 3.71872 27.1458 3.51809C26.9941 3.3181 26.7583 3.19997 26.5066 3.19997H7.0064L6.43453 0.626661C6.35328 0.260206 6.02828 0 5.65328 0H0.799993C0.357914 0 0 0.357914 0 0.799993C0 1.24228 0.357914 1.59999 0.799993 1.59999H5.01121L7.90014 14.5999C7.05015 14.9695 6.45328 15.8155 6.45328 16.8001C6.45328 18.1234 7.52993 19.2 8.85326 19.2H23.3067C23.749 19.2 24.1067 18.8423 24.1067 18.4C24.1067 17.958 23.749 17.6001 23.3067 17.6001H8.85326C8.41263 17.6001 8.05326 17.2415 8.05326 16.8001C8.05326 16.3586 8.41263 16.0001 8.85326 16.0001Z" fill="#A0A0A0"/>
<path d="M8.0528 21.5999C8.0528 22.9235 9.12945 23.9999 10.453 23.9999C11.7763 23.9999 12.853 22.9235 12.853 21.5999C12.853 20.2766 11.7763 19.2 10.453 19.2C9.12945 19.2 8.0528 20.2766 8.0528 21.5999Z" fill="#A0A0A0"/>
<path d="M19.3068 21.5999C19.3068 22.9235 20.3835 23.9999 21.7068 23.9999C23.0303 23.9999 24.1068 22.9235 24.1068 21.5999C24.1068 20.2766 23.0303 19.2 21.7068 19.2C20.3835 19.2 19.3068 20.2766 19.3068 21.5999Z" fill="#A0A0A0"/>
</svg>
