<svg width="25" height="24" viewBox="0 0 25 24" fill="none" xmlns="http://www.w3.org/2000/svg">
<path d="M23.4516 10.4785L14.9483 1.28582C14.5735 0.880352 14.1189 0.556803 13.6131 0.335518C13.1072 0.114234 12.5611 0 12.009 0C11.4568 0 10.9107 0.114234 10.4048 0.335518C9.89897 0.556803 9.44438 0.880352 9.06963 1.28582L0.581361 10.4755C0.208842 10.8506 -0.000155602 11.3578 8.69204e-08 11.8864V20.9981C8.69204e-08 21.7942 0.316267 22.5577 0.879225 23.1207C1.44218 23.6837 2.20572 23.9999 3.00186 23.9999H7.00435V17.9962C7.0077 17.0974 7.25383 16.2163 7.7167 15.4459C8.17958 14.6755 8.84202 14.0444 9.63398 13.6195C9.68401 13.5915 9.73404 13.5634 9.78607 13.5364C9.9729 13.4434 10.1654 13.3621 10.3624 13.2933C10.4975 13.2442 10.6346 13.2022 10.7757 13.1652C10.9168 13.1282 11.0869 13.0952 11.247 13.0651C11.335 13.0511 11.4171 13.0211 11.5071 13.0121C11.6612 12.9971 11.8073 12.9941 11.9624 12.9931C11.9784 12.9931 11.9924 12.9881 12.0075 12.9881H12.0255C12.3352 12.9905 12.6441 13.0216 12.948 13.0811C12.9821 13.0881 13.0161 13.0911 13.0481 13.0982C13.3333 13.1604 13.6125 13.2475 13.8826 13.3583C13.9206 13.3733 13.9587 13.3873 13.9967 13.4043C14.2551 13.5165 14.5035 13.6504 14.7391 13.8046L14.8502 13.8786C15.079 14.0377 15.2942 14.2154 15.4936 14.41C15.5256 14.441 15.5557 14.472 15.5867 14.504C15.782 14.7046 15.9607 14.9208 16.121 15.1504L16.189 15.2505C16.3465 15.4896 16.4834 15.7417 16.5983 16.004C16.6113 16.036 16.6223 16.068 16.6353 16.104C16.7497 16.3806 16.8387 16.6669 16.9015 16.9595C16.9015 16.9816 16.9085 17.0046 16.9125 17.0266C16.9768 17.3458 17.0097 17.6706 17.0106 17.9962V23.9999H21.013C21.8092 23.9999 22.5727 23.6837 23.1357 23.1207C23.6986 22.5577 24.0149 21.7942 24.0149 20.9981V11.8714C24.0151 11.3516 23.8131 10.852 23.4516 10.4785Z" fill="#FCFCFC"/>
<path d="M12.0074 14.9943C11.2113 14.9943 10.4478 15.3105 9.88481 15.8735C9.32185 16.4364 9.00558 17.2 9.00558 17.9961V23.9999H15.0093V17.9961C15.0093 17.2 14.693 16.4364 14.1301 15.8735C13.5671 15.3105 12.8036 14.9943 12.0074 14.9943Z" fill="#FCFCFC"/>
</svg>
