<svg width="12" height="24" viewBox="0 0 12 24" fill="none" xmlns="http://www.w3.org/2000/svg">
<path d="M11.5081 23.008C11.8231 22.6929 12 22.2657 12 21.8202C12 21.3747 11.8231 20.9474 11.5081 20.6324L3.80334 12.9276C3.49675 12.6082 3.32555 12.1826 3.32555 11.7398C3.32555 11.2971 3.49675 10.8714 3.80334 10.552L11.5081 2.84725C11.8141 2.53038 11.9835 2.106 11.9796 1.66549C11.9758 1.22499 11.7991 0.803604 11.4876 0.492107C11.1761 0.180611 10.7548 0.00391769 10.3143 8.96454e-05C9.87374 -0.0037384 9.44936 0.165604 9.13249 0.47164L1.42774 8.17472C0.511306 9.13508 0 10.4115 0 11.739C0 13.0664 0.511306 14.3429 1.42774 15.3032L9.13249 23.008C9.44755 23.3229 9.87481 23.4999 10.3203 23.4999C10.7658 23.4999 11.193 23.3229 11.5081 23.008Z" fill="white"/>
</svg>
