<svg width="8" height="16" viewBox="0 0 8 16" fill="none" xmlns="http://www.w3.org/2000/svg">
<path d="M0.327933 0.327933C0.117958 0.537971 -3.5966e-08 0.822806 -4.89481e-08 1.1198C-6.19301e-08 1.4168 0.117958 1.70163 0.327933 1.91167L5.46444 7.04818C5.66883 7.26113 5.78297 7.54487 5.78297 7.84005C5.78297 8.13522 5.66883 8.41896 5.46444 8.63191L0.327932 13.7684C0.123908 13.9797 0.0110143 14.2626 0.0135663 14.5563C0.0161179 14.8499 0.133911 15.1308 0.341576 15.3385C0.54924 15.5462 0.830161 15.664 1.12383 15.6665C1.4175 15.6691 1.70043 15.5562 1.91167 15.3522L7.04818 10.2168C7.65913 9.57654 8 8.72557 8 7.8406C8 6.95564 7.65913 6.10468 7.04818 5.46444L1.91167 0.327933C1.70163 0.117957 1.4168 -2.87761e-07 1.1198 -3.00743e-07C0.822807 -3.13725e-07 0.537971 0.117957 0.327933 0.327933Z" fill="white"/>
</svg>
